<svg xmlns="http://www.w3.org/2000/svg" viewBox="0 0 650.35 915.0500000000001" width="650.35" height="915.0500000000001" style="--bg:#ffffff;--fg:#1f2328;--line:#d1d9e0;--accent:#0969da;--muted:#59636e">
<style>
  @import url('https://fonts.googleapis.com/css2?family=Inter:wght@400;500;600;700&amp;display=swap');
  text { font-family: 'Inter', system-ui, sans-serif; }
  svg {
    /* Derived from --bg and --fg (overridable via --line, --accent, etc.) */
    --_text:          var(--fg);
    --_text-sec:      var(--muted, color-mix(in srgb, var(--fg) 60%, var(--bg)));
    --_text-muted:    var(--muted, color-mix(in srgb, var(--fg) 40%, var(--bg)));
    --_text-faint:    color-mix(in srgb, var(--fg) 25%, var(--bg));
    --_line:          var(--line, color-mix(in srgb, var(--fg) 30%, var(--bg)));
    --_arrow:         var(--accent, color-mix(in srgb, var(--fg) 50%, var(--bg)));
    --_node-fill:     var(--surface, color-mix(in srgb, var(--fg) 3%, var(--bg)));
    --_node-stroke:   var(--border, color-mix(in srgb, var(--fg) 20%, var(--bg)));
    --_group-fill:    var(--bg);
    --_group-hdr:     color-mix(in srgb, var(--fg) 5%, var(--bg));
    --_inner-stroke:  color-mix(in srgb, var(--fg) 12%, var(--bg));
    --_key-badge:     color-mix(in srgb, var(--fg) 10%, var(--bg));
  }
</style>
<defs>
  <marker id="arrowhead" markerWidth="8" markerHeight="4.8" refX="8" refY="2.4" orient="auto">
    <polygon points="0 0, 8 2.4, 0 4.8" fill="var(--_arrow)" />
  </marker>
  <marker id="arrowhead-start" markerWidth="8" markerHeight="4.8" refX="0" refY="2.4" orient="auto-start-reverse">
    <polygon points="8 0, 0 2.4, 8 4.8" fill="var(--_arrow)" />
  </marker>
</defs>
<polyline points="131.075,545.7 131.075,585.7" fill="none" stroke="var(--_line)" stroke-width="0.75" marker-end="url(#arrowhead)" />
<polyline points="131.075,621.7 131.075,703.875" fill="none" stroke="var(--_line)" stroke-width="0.75" marker-end="url(#arrowhead)" />
<polyline points="131.075,739.875 131.075,857.0500000000001 110.8375,857.0500000000001" fill="none" stroke="var(--_line)" stroke-width="0.75" marker-end="url(#arrowhead)" />
<polyline points="187.6125,839.0500000000001 187.6125,810.5500000000001 244.14999999999998,810.5500000000001 244.14999999999998,172.75364738890397 347.57864738890396,172.75364738890397" fill="none" stroke="var(--_line)" stroke-width="0.75" marker-end="url(#arrowhead)" />
<polyline points="361.33902572191215,186.51402572191216 361.33902572191215,253.20000000000002 314.325,253.20000000000002 314.325,281.70000000000005" fill="none" stroke="var(--_line)" stroke-width="0.75" marker-end="url(#arrowhead)" />
<polyline points="421.93611546294846,202.2888845370516 421.93611546294846,253.20000000000002 438.25,253.20000000000002 438.25,281.70000000000005" fill="none" stroke="var(--_line)" stroke-width="0.75" marker-end="url(#arrowhead)" />
<polyline points="452.5081657848325,171.71683421516758 452.5081657848325,253.20000000000002 562.175,253.20000000000002 562.175,281.70000000000005" fill="none" stroke="var(--_line)" stroke-width="0.75" marker-end="url(#arrowhead)" />
<polyline points="314.325,317.70000000000005 314.325,375.70000000000005 357.9,375.70000000000005" fill="none" stroke="var(--_line)" stroke-width="0.75" marker-end="url(#arrowhead)" />
<polyline points="438.25,317.70000000000005 438.25,357.70000000000005" fill="none" stroke="var(--_line)" stroke-width="0.75" marker-end="url(#arrowhead)" />
<polyline points="562.175,317.70000000000005 562.175,375.70000000000005 518.6,375.70000000000005" fill="none" stroke="var(--_line)" stroke-width="0.75" marker-end="url(#arrowhead)" />
<polyline points="438.25,393.70000000000005 438.25,433.70000000000005" fill="none" stroke="var(--_line)" stroke-width="0.75" marker-end="url(#arrowhead)" />
<polyline points="438.25,469.70000000000005 438.25,509.70000000000005" fill="none" stroke="var(--_line)" stroke-width="0.75" marker-end="url(#arrowhead)" />
<polyline points="438.25,545.7 438.25,585.7" fill="none" stroke="var(--_line)" stroke-width="0.75" marker-end="url(#arrowhead)" />
<polyline points="438.25,621.7 438.25,661.7" fill="none" stroke="var(--_line)" stroke-width="0.75" marker-end="url(#arrowhead)" />
<polyline points="393.80096979185856,737.6009697918586 393.80096979185856,810.5500000000001 187.6125,810.5500000000001 187.6125,839.0500000000001" fill="none" stroke="var(--_line)" stroke-width="0.75" marker-end="url(#arrowhead)" />
<polyline points="438.25,782.05 438.25,839.0500000000001" fill="none" stroke="var(--_line)" stroke-width="0.75" marker-end="url(#arrowhead)" />
<rect x="289.16499999999996" y="239.70000000000002" width="50.32" height="27" rx="4" ry="4" fill="var(--bg)" stroke="var(--_inner-stroke)" stroke-width="0.5" />
<text x="314.325" y="253.20000000000002" text-anchor="middle" dy="0.35em" font-size="11" font-weight="400" fill="var(--_text-muted)">Claude</text>
<rect x="415.95" y="239.70000000000002" width="44.6" height="27" rx="4" ry="4" fill="var(--bg)" stroke="var(--_inner-stroke)" stroke-width="0.5" />
<text x="438.25" y="253.20000000000002" text-anchor="middle" dy="0.35em" font-size="11" font-weight="400" fill="var(--_text-muted)">Codex</text>
<rect x="537.015" y="239.70000000000002" width="50.32" height="27" rx="4" ry="4" fill="var(--bg)" stroke="var(--_inner-stroke)" stroke-width="0.5" />
<text x="562.175" y="253.20000000000002" text-anchor="middle" dy="0.35em" font-size="11" font-weight="400" fill="var(--_text-muted)">Gemini</text>
<rect x="173.8925" y="797.0500000000001" width="27.44" height="27" rx="4" ry="4" fill="var(--bg)" stroke="var(--_inner-stroke)" stroke-width="0.5" />
<text x="187.6125" y="810.5500000000001" text-anchor="middle" dy="0.35em" font-size="11" font-weight="400" fill="var(--_text-muted)">No</text>
<rect x="421.67" y="797.0500000000001" width="33.16" height="27" rx="4" ry="4" fill="var(--bg)" stroke="var(--_inner-stroke)" stroke-width="0.5" />
<text x="438.25" y="810.5500000000001" text-anchor="middle" dy="0.35em" font-size="11" font-weight="400" fill="var(--_text-muted)">Yes</text>
<rect x="61.44999999999999" y="509.70000000000005" width="139.25" height="36" rx="0" ry="0" fill="#d3f9d8" stroke="#2f9e44" stroke-width="2px" />
<rect x="39.999999999999986" y="585.7" width="182.15" height="36" rx="0" ry="0" fill="#dae8fc" stroke="#6c8ebf" stroke-width="0.75" />
<rect x="47.14999999999998" y="703.875" width="167.85000000000002" height="36" rx="0" ry="0" fill="#dae8fc" stroke="#6c8ebf" stroke-width="0.75" />
<rect x="110.8375" y="839.0500000000001" width="153.55" height="36" rx="0" ry="0" fill="#d3f9d8" stroke="#2f9e44" stroke-width="2px" />
<polygon points="399.52500000000003,40.000000000000014 491.87500000000006,132.35000000000002 399.52500000000003,224.70000000000005 307.175,132.35000000000002" fill="#fff2cc" stroke="#d6b656" stroke-width="2px" />
<rect x="266.15" y="281.70000000000005" width="96.35000000000001" height="36" rx="0" ry="0" fill="#dae8fc" stroke="#6c8ebf" stroke-width="0.75" />
<rect x="386.5" y="281.70000000000005" width="103.5" height="36" rx="0" ry="0" fill="#ffe3e3" stroke="#c92a2a" stroke-width="0.75" />
<rect x="514" y="281.70000000000005" width="96.35000000000001" height="36" rx="0" ry="0" fill="#d3f9d8" stroke="#2f9e44" stroke-width="0.75" />
<rect x="357.9" y="357.70000000000005" width="160.70000000000002" height="36" rx="0" ry="0" fill="#fff4e6" stroke="#e67700" stroke-width="0.75" />
<rect x="368.625" y="433.70000000000005" width="139.25" height="36" rx="0" ry="0" fill="#f8f9fa" stroke="#868e96" stroke-width="0.75" />
<rect x="343.6" y="509.70000000000005" width="189.3" height="36" rx="0" ry="0" fill="#fff4e6" stroke="#e67700" stroke-width="0.75" />
<rect x="382.925" y="585.7" width="110.65" height="36" rx="0" ry="0" fill="#d3f9d8" stroke="#2f9e44" stroke-width="0.75" />
<polygon points="438.25,661.7 498.425,721.875 438.25,782.05 378.075,721.875" fill="#fff2cc" stroke="#d6b656" stroke-width="2px" />
<rect x="357.9" y="839.0500000000001" width="160.70000000000002" height="36" rx="0" ry="0" fill="#c5f6fa" stroke="#0c8599" stroke-width="2px" />
<text x="131.075" y="527.7" text-anchor="middle" dy="0.35em" font-size="13" font-weight="500" fill="var(--_text)">init --mode dag</text>
<text x="131.075" y="603.7" text-anchor="middle" dy="0.35em" font-size="13" font-weight="500" fill="var(--_text)">add tasks with --deps</text>
<text x="131.075" y="721.875" text-anchor="middle" dy="0.35em" font-size="13" font-weight="500" fill="var(--_text)">graph - verify deps</text>
<text x="187.6125" y="857.0500000000001" text-anchor="middle" dy="0.35em" font-size="13" font-weight="500" fill="var(--_text)">ready - get tasks</text>
<text x="399.52500000000003" y="132.35000000000002" text-anchor="middle" dy="0.35em" font-size="13" font-weight="500" fill="var(--_text)">Dispatch to agents</text>
<text x="314.325" y="299.70000000000005" text-anchor="middle" dy="0.35em" font-size="13" font-weight="500" fill="var(--_text)">claude -p</text>
<text x="438.25" y="299.70000000000005" text-anchor="middle" dy="0.35em" font-size="13" font-weight="500" fill="var(--_text)">codex exec</text>
<text x="562.175" y="299.70000000000005" text-anchor="middle" dy="0.35em" font-size="13" font-weight="500" fill="var(--_text)">gemini -p</text>
<text x="438.25" y="375.70000000000005" text-anchor="middle" dy="0.35em" font-size="13" font-weight="500" fill="var(--_text)">update in-progress</text>
<text x="438.25" y="451.70000000000005" text-anchor="middle" dy="0.35em" font-size="13" font-weight="500" fill="var(--_text)">Wait for result</text>
<text x="438.25" y="527.7" text-anchor="middle" dy="0.35em" font-size="13" font-weight="500" fill="var(--_text)">result - record output</text>
<text x="438.25" y="603.7" text-anchor="middle" dy="0.35em" font-size="13" font-weight="500" fill="var(--_text)">update done</text>
<text x="438.25" y="721.875" text-anchor="middle" dy="0.35em" font-size="13" font-weight="500" fill="var(--_text)">All done?</text>
<text x="438.25" y="857.0500000000001" text-anchor="middle" dy="0.35em" font-size="13" font-weight="500" fill="var(--_text)">log - view history</text>
</svg>