<svg xmlns="http://www.w3.org/2000/svg" viewBox="0 0 753.1 724" width="753.1" height="724" style="--bg:#ffffff;--fg:#1f2328;--line:#d1d9e0;--accent:#0969da;--muted:#59636e">
<style>
  @import url('https://fonts.googleapis.com/css2?family=Inter:wght@400;500;600;700&amp;display=swap');
  text { font-family: 'Inter', system-ui, sans-serif; }
  svg {
    /* Derived from --bg and --fg (overridable via --line, --accent, etc.) */
    --_text:          var(--fg);
    --_text-sec:      var(--muted, color-mix(in srgb, var(--fg) 60%, var(--bg)));
    --_text-muted:    var(--muted, color-mix(in srgb, var(--fg) 40%, var(--bg)));
    --_text-faint:    color-mix(in srgb, var(--fg) 25%, var(--bg));
    --_line:          var(--line, color-mix(in srgb, var(--fg) 30%, var(--bg)));
    --_arrow:         var(--accent, color-mix(in srgb, var(--fg) 50%, var(--bg)));
    --_node-fill:     var(--surface, color-mix(in srgb, var(--fg) 3%, var(--bg)));
    --_node-stroke:   var(--border, color-mix(in srgb, var(--fg) 20%, var(--bg)));
    --_group-fill:    var(--bg);
    --_group-hdr:     color-mix(in srgb, var(--fg) 5%, var(--bg));
    --_inner-stroke:  color-mix(in srgb, var(--fg) 12%, var(--bg));
    --_key-badge:     color-mix(in srgb, var(--fg) 10%, var(--bg));
  }
</style>
<defs>
  <marker id="arrowhead" markerWidth="8" markerHeight="4.8" refX="8" refY="2.4" orient="auto">
    <polygon points="0 0, 8 2.4, 0 4.8" fill="var(--_arrow)" />
  </marker>
  <marker id="arrowhead-start" markerWidth="8" markerHeight="4.8" refX="0" refY="2.4" orient="auto-start-reverse">
    <polygon points="8 0, 0 2.4, 8 4.8" fill="var(--_arrow)" />
  </marker>
</defs>
<polyline points="398,76 398,116" fill="none" stroke="var(--_line)" stroke-width="0.75" marker-end="url(#arrowhead)" />
<polyline points="398,152 398,172 224.02499999999998,172 224.02499999999998,192" fill="none" stroke="var(--_line)" stroke-width="0.75" marker-end="url(#arrowhead)" />
<polyline points="398,152 398,192" fill="none" stroke="var(--_line)" stroke-width="0.75" marker-end="url(#arrowhead)" />
<polyline points="398,152 398,172 550.525,172 550.525,192" fill="none" stroke="var(--_line)" stroke-width="0.75" marker-end="url(#arrowhead)" />
<polyline points="224.02499999999998,228 224.02499999999998,286 331.95,286" fill="none" stroke="var(--_line)" stroke-width="0.75" marker-end="url(#arrowhead)" />
<polyline points="398,228 398,286 442.59999999999997,286" fill="none" stroke="var(--_line)" stroke-width="0.75" marker-end="url(#arrowhead)" />
<polyline points="550.525,228 550.525,286 442.59999999999997,286" fill="none" stroke="var(--_line)" stroke-width="0.75" marker-end="url(#arrowhead)" />
<polyline points="387.275,304 387.275,344" fill="none" stroke="var(--_line)" stroke-width="0.75" marker-end="url(#arrowhead)" />
<polyline points="387.275,380 387.275,400 148.95,400 148.95,420" fill="none" stroke="var(--_line)" stroke-width="0.75" marker-end="url(#arrowhead)" />
<polyline points="387.275,380 387.275,420" fill="none" stroke="var(--_line)" stroke-width="0.75" marker-end="url(#arrowhead)" />
<polyline points="387.275,380 387.275,400 614.875,400 614.875,420" fill="none" stroke="var(--_line)" stroke-width="0.75" marker-end="url(#arrowhead)" />
<polyline points="148.95,456 148.95,514 317.65,514" fill="none" stroke="var(--_line)" stroke-width="0.75" marker-end="url(#arrowhead)" />
<polyline points="387.275,456 387.275,514 317.65,514" fill="none" stroke="var(--_line)" stroke-width="0.75" marker-end="url(#arrowhead)" />
<polyline points="614.875,456 614.875,514 478.35,514" fill="none" stroke="var(--_line)" stroke-width="0.75" marker-end="url(#arrowhead)" />
<polyline points="398,532 398,572" fill="none" stroke="var(--_line)" stroke-width="0.75" marker-end="url(#arrowhead)" />
<polyline points="398,608 398,648" fill="none" stroke="var(--_line)" stroke-width="0.75" marker-end="url(#arrowhead)" />
<rect x="317.65" y="40" width="160.70000000000002" height="36" rx="0" ry="0" fill="#e5dbff" stroke="#5f3dc4" stroke-width="2px" />
<rect x="274.75" y="116" width="246.50000000000003" height="36" rx="0" ry="0" fill="#e5dbff" stroke="#5f3dc4" stroke-width="0.75" />
<rect x="154.39999999999998" y="192" width="139.25" height="36" rx="0" ry="0" fill="#dae8fc" stroke="#6c8ebf" stroke-width="0.75" />
<rect x="317.65" y="192" width="160.70000000000002" height="36" rx="0" ry="0" fill="#dae8fc" stroke="#6c8ebf" stroke-width="0.75" />
<rect x="502.34999999999997" y="192" width="96.35000000000001" height="36" rx="0" ry="0" fill="#dae8fc" stroke="#6c8ebf" stroke-width="0.75" />
<rect x="331.95" y="268" width="110.65" height="36" rx="0" ry="0" fill="#e5dbff" stroke="#5f3dc4" stroke-width="2px" />
<rect x="267.59999999999997" y="344" width="239.35000000000002" height="36" rx="0" ry="0" fill="#fff2cc" stroke="#d6b656" stroke-width="0.75" />
<rect x="39.999999999999986" y="420" width="217.9" height="36" rx="0" ry="0" fill="#f8f9fa" stroke="#868e96" stroke-width="0.75" />
<rect x="281.9" y="420" width="210.75000000000003" height="36" rx="0" ry="0" fill="#f8f9fa" stroke="#868e96" stroke-width="0.75" />
<rect x="516.65" y="420" width="196.45000000000002" height="36" rx="0" ry="0" fill="#f8f9fa" stroke="#868e96" stroke-width="0.75" />
<rect x="317.65" y="496" width="160.70000000000002" height="36" rx="0" ry="0" fill="#ffe3e3" stroke="#c92a2a" stroke-width="0.75" />
<rect x="324.8" y="572" width="146.4" height="36" rx="0" ry="0" fill="#e5dbff" stroke="#5f3dc4" stroke-width="2px" />
<rect x="299.775" y="648" width="196.45000000000002" height="36" rx="0" ry="0" fill="#c5f6fa" stroke="#0c8599" stroke-width="2px" />
<text x="398" y="58" text-anchor="middle" dy="0.35em" font-size="13" font-weight="500" fill="var(--_text)">init --mode debate</text>
<text x="398" y="134" text-anchor="middle" dy="0.35em" font-size="13" font-weight="500" fill="var(--_text)">add-debater with --perspective</text>
<text x="224.02499999999998" y="210" text-anchor="middle" dy="0.35em" font-size="13" font-weight="500" fill="var(--_text)">Security Expert</text>
<text x="398" y="210" text-anchor="middle" dy="0.35em" font-size="13" font-weight="500" fill="var(--_text)">Performance Expert</text>
<text x="550.525" y="210" text-anchor="middle" dy="0.35em" font-size="13" font-weight="500" fill="var(--_text)">DX Expert</text>
<text x="387.275" y="286" text-anchor="middle" dy="0.35em" font-size="13" font-weight="500" fill="var(--_text)">round start</text>
<text x="387.275" y="362" text-anchor="middle" dy="0.35em" font-size="13" font-weight="500" fill="var(--_text)">round submit - post positions</text>
<text x="148.95" y="438" text-anchor="middle" dy="0.35em" font-size="13" font-weight="500" fill="var(--_text)">Microservices isolation...</text>
<text x="387.275" y="438" text-anchor="middle" dy="0.35em" font-size="13" font-weight="500" fill="var(--_text)">Monolith less overhead...</text>
<text x="614.875" y="438" text-anchor="middle" dy="0.35em" font-size="13" font-weight="500" fill="var(--_text)">Developer experience...</text>
<text x="398" y="514" text-anchor="middle" dy="0.35em" font-size="13" font-weight="500" fill="var(--_text)">round cross-review</text>
<text x="398" y="590" text-anchor="middle" dy="0.35em" font-size="13" font-weight="500" fill="var(--_text)">round synthesize</text>
<text x="398" y="666" text-anchor="middle" dy="0.35em" font-size="13" font-weight="500" fill="var(--_text)">Combined recommendation</text>
</svg>