<svg xmlns="http://www.w3.org/2000/svg" viewBox="0 0 737.2750000000002 760" width="737.2750000000002" height="760" style="--bg:#ffffff;--fg:#1f2328;--line:#d1d9e0;--accent:#0969da;--muted:#59636e">
<style>
  @import url('https://fonts.googleapis.com/css2?family=Inter:wght@400;500;600;700&amp;display=swap');
  text { font-family: 'Inter', system-ui, sans-serif; }
  svg {
    /* Derived from --bg and --fg (overridable via --line, --accent, etc.) */
    --_text:          var(--fg);
    --_text-sec:      var(--muted, color-mix(in srgb, var(--fg) 60%, var(--bg)));
    --_text-muted:    var(--muted, color-mix(in srgb, var(--fg) 40%, var(--bg)));
    --_text-faint:    color-mix(in srgb, var(--fg) 25%, var(--bg));
    --_line:          var(--line, color-mix(in srgb, var(--fg) 30%, var(--bg)));
    --_arrow:         var(--accent, color-mix(in srgb, var(--fg) 50%, var(--bg)));
    --_node-fill:     var(--surface, color-mix(in srgb, var(--fg) 3%, var(--bg)));
    --_node-stroke:   var(--border, color-mix(in srgb, var(--fg) 20%, var(--bg)));
    --_group-fill:    var(--bg);
    --_group-hdr:     color-mix(in srgb, var(--fg) 5%, var(--bg));
    --_inner-stroke:  color-mix(in srgb, var(--fg) 12%, var(--bg));
    --_key-badge:     color-mix(in srgb, var(--fg) 10%, var(--bg));
  }
</style>
<defs>
  <marker id="arrowhead" markerWidth="8" markerHeight="4.8" refX="8" refY="2.4" orient="auto">
    <polygon points="0 0, 8 2.4, 0 4.8" fill="var(--_arrow)" />
  </marker>
  <marker id="arrowhead-start" markerWidth="8" markerHeight="4.8" refX="0" refY="2.4" orient="auto-start-reverse">
    <polygon points="8 0, 0 2.4, 8 4.8" fill="var(--_arrow)" />
  </marker>
</defs>
<rect x="40.00000000000006" y="140" width="154.64999999999998" height="580" rx="0" ry="0" fill="var(--_group-fill)" stroke="var(--_node-stroke)" stroke-width="1" />
<rect x="40.00000000000006" y="140" width="154.64999999999998" height="28" rx="0" ry="0" fill="var(--_group-hdr)" stroke="var(--_node-stroke)" stroke-width="1" />
<text x="52.00000000000006" y="154" dy="0.35em" font-size="12" font-weight="600" fill="var(--_text-sec)">&quot;Linear Pipeline&quot;</text>
<rect x="214.65000000000012" y="140" width="241.03750000000008" height="424" rx="0" ry="0" fill="var(--_group-fill)" stroke="var(--_node-stroke)" stroke-width="1" />
<rect x="214.65000000000012" y="140" width="241.03750000000008" height="28" rx="0" ry="0" fill="var(--_group-hdr)" stroke="var(--_node-stroke)" stroke-width="1" />
<text x="226.65000000000012" y="154" dy="0.35em" font-size="12" font-weight="600" fill="var(--_text-sec)">&quot;DAG Parallel Execution&quot;</text>
<rect x="475.6875000000001" y="140" width="221.58750000000003" height="580" rx="0" ry="0" fill="var(--_group-fill)" stroke="var(--_node-stroke)" stroke-width="1" />
<rect x="475.6875000000001" y="140" width="221.58750000000003" height="28" rx="0" ry="0" fill="var(--_group-hdr)" stroke="var(--_node-stroke)" stroke-width="1" />
<text x="487.6875000000001" y="154" dy="0.35em" font-size="12" font-weight="600" fill="var(--_text-sec)">&quot;Multi-Party Debate&quot;</text>
<polyline points="117.32500000000016,232 117.32500000000016,352" fill="none" stroke="var(--_line)" stroke-width="0.75" marker-end="url(#arrowhead)" />
<polyline points="117.32500000000016,388 117.32500000000016,508" fill="none" stroke="var(--_line)" stroke-width="0.75" marker-end="url(#arrowhead)" />
<polyline points="117.32500000000016,544 117.32500000000016,664" fill="none" stroke="var(--_line)" stroke-width="0.75" marker-end="url(#arrowhead)" />
<polyline points="320.97500000000014,232 320.97500000000014,252 279.46250000000015,252 279.46250000000015,352" fill="none" stroke="var(--_line)" stroke-width="0.75" marker-end="url(#arrowhead)" />
<polyline points="320.97500000000014,232 320.97500000000014,252 389.08750000000015,252 389.08750000000015,352" fill="none" stroke="var(--_line)" stroke-width="0.75" marker-end="url(#arrowhead)" />
<polyline points="279.46250000000015,388 279.46250000000015,526 276.3750000000001,526" fill="none" stroke="var(--_line)" stroke-width="0.75" marker-end="url(#arrowhead)" />
<polyline points="389.08750000000015,388 389.08750000000015,526 365.57500000000016,526" fill="none" stroke="var(--_line)" stroke-width="0.75" marker-end="url(#arrowhead)" />
<polyline points="564.0750000000002,232 564.0750000000002,252 518.9875000000002,252 518.9875000000002,682 515.9000000000002,682" fill="none" stroke="var(--_line)" stroke-width="0.75" stroke-dasharray="4 4" marker-end="url(#arrowhead)" />
<polyline points="597.3750000000002,388 597.3750000000002,408 564.0750000000002,408 564.0750000000002,664" fill="none" stroke="var(--_line)" stroke-width="0.75" stroke-dasharray="4 4" marker-end="url(#arrowhead)" />
<polyline points="630.6750000000002,544 630.6750000000002,682 612.2500000000001,682" fill="none" stroke="var(--_line)" stroke-width="0.75" stroke-dasharray="4 4" marker-end="url(#arrowhead)" />
<polyline points="564.0750000000002,232 564.0750000000002,252 597.3750000000002,252 597.3750000000002,352" fill="none" stroke="var(--_line)" stroke-width="0.75" stroke-dasharray="4 4" marker-end="url(#arrowhead)" marker-start="url(#arrowhead-start)" />
<polyline points="597.3750000000002,388 597.3750000000002,408 630.6750000000002,408 630.6750000000002,508" fill="none" stroke="var(--_line)" stroke-width="0.75" stroke-dasharray="4 4" marker-end="url(#arrowhead)" marker-start="url(#arrowhead-start)" />
<polyline points="334.27500000000015,76 334.27500000000015,96 117.32500000000016,96 117.32500000000016,196" fill="none" stroke="var(--_line)" stroke-width="0.75" marker-end="url(#arrowhead)" />
<polyline points="334.27500000000015,76 334.27500000000015,96 320.97500000000014,96 320.97500000000014,196" fill="none" stroke="var(--_line)" stroke-width="0.75" marker-end="url(#arrowhead)" />
<polyline points="334.27500000000015,76 334.27500000000015,96 564.0750000000002,96 564.0750000000002,196" fill="none" stroke="var(--_line)" stroke-width="0.75" marker-end="url(#arrowhead)" />
<rect x="186.00000000000014" y="40" width="296.55" height="36" rx="0" ry="0" fill="#e7f5ff" stroke="#1971c2" stroke-width="2px" />
<rect x="72.72500000000016" y="196" width="89.2" height="36" rx="0" ry="0" fill="#dae8fc" stroke="#6c8ebf" stroke-width="0.75" />
<rect x="62.000000000000156" y="352" width="110.65" height="36" rx="0" ry="0" fill="#dae8fc" stroke="#6c8ebf" stroke-width="0.75" />
<rect x="79.87500000000016" y="508" width="74.9" height="36" rx="0" ry="0" fill="#dae8fc" stroke="#6c8ebf" stroke-width="0.75" />
<rect x="72.72500000000016" y="664" width="89.2" height="36" rx="0" ry="0" fill="#dae8fc" stroke="#6c8ebf" stroke-width="0.75" />
<rect x="283.52500000000015" y="196" width="74.9" height="36" rx="0" ry="0" fill="#d3f9d8" stroke="#2f9e44" stroke-width="0.75" />
<rect x="238.43750000000014" y="352" width="82.05000000000001" height="36" rx="0" ry="0" fill="#d3f9d8" stroke="#2f9e44" stroke-width="0.75" />
<rect x="344.4875000000001" y="352" width="89.2" height="36" rx="0" ry="0" fill="#d3f9d8" stroke="#2f9e44" stroke-width="0.75" />
<rect x="276.3750000000001" y="508" width="89.2" height="36" rx="0" ry="0" fill="#d3f9d8" stroke="#2f9e44" stroke-width="0.75" />
<rect x="519.4750000000001" y="196" width="89.2" height="36" rx="0" ry="0" fill="#e5dbff" stroke="#5f3dc4" stroke-width="0.75" />
<rect x="515.9000000000002" y="664" width="96.35000000000001" height="36" rx="0" ry="0" fill="#e5dbff" stroke="#5f3dc4" stroke-width="0.75" />
<rect x="552.7750000000002" y="352" width="89.2" height="36" rx="0" ry="0" fill="#e5dbff" stroke="#5f3dc4" stroke-width="0.75" />
<rect x="586.0750000000002" y="508" width="89.2" height="36" rx="0" ry="0" fill="#e5dbff" stroke="#5f3dc4" stroke-width="0.75" />
<text x="334.27500000000015" y="58" text-anchor="middle" dy="0.35em" font-size="13" font-weight="500" fill="var(--_text)">Team Tasks - Three Coordination Modes</text>
<text x="117.32500000000016" y="214" text-anchor="middle" dy="0.35em" font-size="13" font-weight="500" fill="var(--_text)">analyzer</text>
<text x="117.32500000000016" y="370" text-anchor="middle" dy="0.35em" font-size="13" font-weight="500" fill="var(--_text)">implementer</text>
<text x="117.32500000000016" y="526" text-anchor="middle" dy="0.35em" font-size="13" font-weight="500" fill="var(--_text)">tester</text>
<text x="117.32500000000016" y="682" text-anchor="middle" dy="0.35em" font-size="13" font-weight="500" fill="var(--_text)">deployer</text>
<text x="320.97500000000014" y="214" text-anchor="middle" dy="0.35em" font-size="13" font-weight="500" fill="var(--_text)">design</text>
<text x="279.46250000000015" y="370" text-anchor="middle" dy="0.35em" font-size="13" font-weight="500" fill="var(--_text)">backend</text>
<text x="389.08750000000015" y="370" text-anchor="middle" dy="0.35em" font-size="13" font-weight="500" fill="var(--_text)">frontend</text>
<text x="320.97500000000014" y="526" text-anchor="middle" dy="0.35em" font-size="13" font-weight="500" fill="var(--_text)">e2e-test</text>
<text x="564.0750000000002" y="214" text-anchor="middle" dy="0.35em" font-size="13" font-weight="500" fill="var(--_text)">Expert A</text>
<text x="564.0750000000002" y="682" text-anchor="middle" dy="0.35em" font-size="13" font-weight="500" fill="var(--_text)">Synthesis</text>
<text x="597.3750000000002" y="370" text-anchor="middle" dy="0.35em" font-size="13" font-weight="500" fill="var(--_text)">Expert B</text>
<text x="630.6750000000002" y="526" text-anchor="middle" dy="0.35em" font-size="13" font-weight="500" fill="var(--_text)">Expert C</text>
</svg>